<mxfile host="app.diagrams.net" agent="Mozilla/5.0 (Macintosh; Intel Mac OS X 10_15_7) AppleWebKit/537.36 (KHTML, like Gecko) Chrome/131.0.0.0 Safari/537.36" version="24.8.8">
  <diagram name="Page-1" id="b5b7bab2-c9e2-2cf4-8b2a-24fd1a2a6d21">
    <mxGraphModel dx="1363" dy="3251" grid="1" gridSize="10" guides="1" tooltips="1" connect="1" arrows="1" fold="1" page="1" pageScale="1" pageWidth="827" pageHeight="1169" background="none" math="0" shadow="0">
      <root>
        <mxCell id="0" />
        <mxCell id="1" parent="0" />
        <mxCell id="3qdfxk0Ov2vLYJv6HYns-1" value="Actor" style="shape=umlActor;verticalLabelPosition=bottom;verticalAlign=top;html=1;outlineConnect=0;" vertex="1" parent="1">
          <mxGeometry x="35" y="-2050" width="30" height="60" as="geometry" />
        </mxCell>
        <mxCell id="3qdfxk0Ov2vLYJv6HYns-5" value="&lt;span style=&quot;color: rgba(0, 0, 0, 0); font-family: monospace; font-size: 0px; text-align: start; text-wrap-mode: nowrap;&quot;&gt;%3CmxGraphModel%3E%3Croot%3E%3CmxCell%20id%3D%220%22%2F%3E%3CmxCell%20id%3D%221%22%20parent%3D%220%22%2F%3E%3CmxCell%20id%3D%222%22%20value%3D%22%22%20style%3D%22ellipse%3BwhiteSpace%3Dwrap%3Bhtml%3D1%3BfillColor%3Dnone%3B%22%20vertex%3D%221%22%20parent%3D%221%22%3E%3CmxGeometry%20x%3D%22270%22%20y%3D%22-810%22%20width%3D%22100%22%20height%3D%2260%22%20as%3D%22geometry%22%2F%3E%3C%2FmxCell%3E%3C%2Froot%3E%3C%2FmxGraphModel%3E&lt;/span&gt;" style="whiteSpace=wrap;html=1;aspect=fixed;fillColor=none;" vertex="1" parent="1">
          <mxGeometry x="146" y="-2252" width="554" height="554" as="geometry" />
        </mxCell>
        <mxCell id="3qdfxk0Ov2vLYJv6HYns-9" value="Client" style="text;html=1;align=center;verticalAlign=middle;whiteSpace=wrap;rounded=0;" vertex="1" parent="1">
          <mxGeometry x="20" y="-1980" width="60" height="30" as="geometry" />
        </mxCell>
        <mxCell id="3qdfxk0Ov2vLYJv6HYns-10" value="Actor" style="shape=umlActor;verticalLabelPosition=bottom;verticalAlign=top;html=1;outlineConnect=0;" vertex="1" parent="1">
          <mxGeometry x="730" y="-2130" width="30" height="60" as="geometry" />
        </mxCell>
        <mxCell id="3qdfxk0Ov2vLYJv6HYns-12" value="psychologist" style="text;html=1;align=center;verticalAlign=middle;resizable=0;points=[];autosize=1;strokeColor=none;fillColor=none;" vertex="1" parent="1">
          <mxGeometry x="700" y="-2060" width="90" height="30" as="geometry" />
        </mxCell>
        <mxCell id="3qdfxk0Ov2vLYJv6HYns-14" value="Sessions&amp;nbsp;" style="text;html=1;align=center;verticalAlign=middle;resizable=0;points=[];autosize=1;strokeColor=none;fillColor=none;" vertex="1" parent="1">
          <mxGeometry x="130" y="-2290" width="80" height="30" as="geometry" />
        </mxCell>
        <mxCell id="3qdfxk0Ov2vLYJv6HYns-16" value="Choose a time between offered times" style="ellipse;whiteSpace=wrap;html=1;fillColor=none;" vertex="1" parent="1">
          <mxGeometry x="170" y="-2175" width="90" height="50" as="geometry" />
        </mxCell>
        <mxCell id="3qdfxk0Ov2vLYJv6HYns-18" value="See session list" style="ellipse;whiteSpace=wrap;html=1;fillColor=none;" vertex="1" parent="1">
          <mxGeometry x="340" y="-2050" width="100" height="60" as="geometry" />
        </mxCell>
        <mxCell id="3qdfxk0Ov2vLYJv6HYns-19" value="Play music during the session" style="ellipse;whiteSpace=wrap;html=1;fillColor=none;" vertex="1" parent="1">
          <mxGeometry x="230" y="-1910" width="100" height="60" as="geometry" />
        </mxCell>
        <mxCell id="3qdfxk0Ov2vLYJv6HYns-20" value="Take daily private notes for report" style="ellipse;whiteSpace=wrap;html=1;fillColor=none;" vertex="1" parent="1">
          <mxGeometry x="230" y="-1980" width="100" height="60" as="geometry" />
        </mxCell>
        <mxCell id="3qdfxk0Ov2vLYJv6HYns-21" value="Make desired private notes visible to psychologits" style="ellipse;whiteSpace=wrap;html=1;fillColor=none;" vertex="1" parent="1">
          <mxGeometry x="220" y="-1820" width="100" height="60" as="geometry" />
        </mxCell>
        <mxCell id="3qdfxk0Ov2vLYJv6HYns-22" value="Chat / Send messages" style="ellipse;whiteSpace=wrap;html=1;fillColor=none;" vertex="1" parent="1">
          <mxGeometry x="340" y="-2130" width="100" height="60" as="geometry" />
        </mxCell>
        <mxCell id="3qdfxk0Ov2vLYJv6HYns-24" value="Add private / public notes with client" style="ellipse;whiteSpace=wrap;html=1;fillColor=none;" vertex="1" parent="1">
          <mxGeometry x="500" y="-2150" width="100" height="60" as="geometry" />
        </mxCell>
        <mxCell id="3qdfxk0Ov2vLYJv6HYns-25" value="See client&#39;s weekly report" style="ellipse;whiteSpace=wrap;html=1;fillColor=none;" vertex="1" parent="1">
          <mxGeometry x="490" y="-1990" width="100" height="60" as="geometry" />
        </mxCell>
        <mxCell id="3qdfxk0Ov2vLYJv6HYns-26" value="Check session payment" style="ellipse;whiteSpace=wrap;html=1;fillColor=none;" vertex="1" parent="1">
          <mxGeometry x="490" y="-1910" width="100" height="60" as="geometry" />
        </mxCell>
        <mxCell id="3qdfxk0Ov2vLYJv6HYns-27" value="Create a therapy plan" style="ellipse;whiteSpace=wrap;html=1;fillColor=none;" vertex="1" parent="1">
          <mxGeometry x="490" y="-1830" width="100" height="60" as="geometry" />
        </mxCell>
        <mxCell id="3qdfxk0Ov2vLYJv6HYns-28" value="Offer session times" style="ellipse;whiteSpace=wrap;html=1;fillColor=none;" vertex="1" parent="1">
          <mxGeometry x="480" y="-2220" width="100" height="60" as="geometry" />
        </mxCell>
        <mxCell id="3qdfxk0Ov2vLYJv6HYns-29" value="" style="endArrow=none;html=1;rounded=0;entryX=0;entryY=0.5;entryDx=0;entryDy=0;" edge="1" parent="1" target="3qdfxk0Ov2vLYJv6HYns-16">
          <mxGeometry width="50" height="50" relative="1" as="geometry">
            <mxPoint x="90" y="-2050" as="sourcePoint" />
            <mxPoint x="420" y="-2000" as="targetPoint" />
          </mxGeometry>
        </mxCell>
        <mxCell id="3qdfxk0Ov2vLYJv6HYns-32" value="" style="endArrow=none;html=1;rounded=0;entryX=0;entryY=0.5;entryDx=0;entryDy=0;" edge="1" parent="1" target="3qdfxk0Ov2vLYJv6HYns-18">
          <mxGeometry width="50" height="50" relative="1" as="geometry">
            <mxPoint x="90" y="-2050" as="sourcePoint" />
            <mxPoint x="220" y="-2080" as="targetPoint" />
          </mxGeometry>
        </mxCell>
        <mxCell id="3qdfxk0Ov2vLYJv6HYns-33" value="" style="endArrow=none;html=1;rounded=0;entryX=0;entryY=0.5;entryDx=0;entryDy=0;" edge="1" parent="1" target="3qdfxk0Ov2vLYJv6HYns-19">
          <mxGeometry width="50" height="50" relative="1" as="geometry">
            <mxPoint x="90" y="-2050" as="sourcePoint" />
            <mxPoint x="220" y="-2010" as="targetPoint" />
          </mxGeometry>
        </mxCell>
        <mxCell id="3qdfxk0Ov2vLYJv6HYns-34" value="" style="endArrow=none;html=1;rounded=0;entryX=0;entryY=0.5;entryDx=0;entryDy=0;" edge="1" parent="1" target="3qdfxk0Ov2vLYJv6HYns-20">
          <mxGeometry width="50" height="50" relative="1" as="geometry">
            <mxPoint x="90" y="-2050" as="sourcePoint" />
            <mxPoint x="210" y="-1930" as="targetPoint" />
          </mxGeometry>
        </mxCell>
        <mxCell id="3qdfxk0Ov2vLYJv6HYns-35" value="" style="endArrow=none;html=1;rounded=0;entryX=0;entryY=0.5;entryDx=0;entryDy=0;" edge="1" parent="1" target="3qdfxk0Ov2vLYJv6HYns-21">
          <mxGeometry width="50" height="50" relative="1" as="geometry">
            <mxPoint x="90" y="-2050" as="sourcePoint" />
            <mxPoint x="210" y="-1800" as="targetPoint" />
          </mxGeometry>
        </mxCell>
        <mxCell id="3qdfxk0Ov2vLYJv6HYns-36" value="" style="endArrow=none;html=1;rounded=0;exitX=1;exitY=0.5;exitDx=0;exitDy=0;" edge="1" parent="1" source="3qdfxk0Ov2vLYJv6HYns-28">
          <mxGeometry width="50" height="50" relative="1" as="geometry">
            <mxPoint x="360" y="-1980" as="sourcePoint" />
            <mxPoint x="710" y="-2070" as="targetPoint" />
          </mxGeometry>
        </mxCell>
        <mxCell id="3qdfxk0Ov2vLYJv6HYns-38" value="" style="endArrow=none;html=1;rounded=0;exitX=1;exitY=0.5;exitDx=0;exitDy=0;" edge="1" parent="1" source="3qdfxk0Ov2vLYJv6HYns-24">
          <mxGeometry width="50" height="50" relative="1" as="geometry">
            <mxPoint x="590" y="-2100" as="sourcePoint" />
            <mxPoint x="710" y="-2070" as="targetPoint" />
          </mxGeometry>
        </mxCell>
        <mxCell id="3qdfxk0Ov2vLYJv6HYns-40" value="" style="endArrow=none;html=1;rounded=0;exitX=1;exitY=0.5;exitDx=0;exitDy=0;" edge="1" parent="1" source="3qdfxk0Ov2vLYJv6HYns-26">
          <mxGeometry width="50" height="50" relative="1" as="geometry">
            <mxPoint x="600" y="-1950" as="sourcePoint" />
            <mxPoint x="710" y="-2070" as="targetPoint" />
          </mxGeometry>
        </mxCell>
        <mxCell id="3qdfxk0Ov2vLYJv6HYns-41" value="" style="endArrow=none;html=1;rounded=0;exitX=1;exitY=0.5;exitDx=0;exitDy=0;" edge="1" parent="1">
          <mxGeometry width="50" height="50" relative="1" as="geometry">
            <mxPoint x="590" y="-1800" as="sourcePoint" />
            <mxPoint x="710" y="-2070" as="targetPoint" />
          </mxGeometry>
        </mxCell>
        <mxCell id="3qdfxk0Ov2vLYJv6HYns-42" value="" style="endArrow=none;html=1;rounded=0;exitX=1.007;exitY=0.636;exitDx=0;exitDy=0;exitPerimeter=0;" edge="1" parent="1" source="3qdfxk0Ov2vLYJv6HYns-22">
          <mxGeometry width="50" height="50" relative="1" as="geometry">
            <mxPoint x="360" y="-1980" as="sourcePoint" />
            <mxPoint x="710" y="-2070" as="targetPoint" />
          </mxGeometry>
        </mxCell>
        <mxCell id="3qdfxk0Ov2vLYJv6HYns-43" value="" style="endArrow=none;html=1;rounded=0;exitX=0;exitY=0.5;exitDx=0;exitDy=0;" edge="1" parent="1" source="3qdfxk0Ov2vLYJv6HYns-22">
          <mxGeometry width="50" height="50" relative="1" as="geometry">
            <mxPoint x="450" y="-2090" as="sourcePoint" />
            <mxPoint x="90" y="-2050" as="targetPoint" />
          </mxGeometry>
        </mxCell>
        <mxCell id="3qdfxk0Ov2vLYJv6HYns-44" value="" style="endArrow=none;html=1;rounded=0;exitX=1;exitY=0.5;exitDx=0;exitDy=0;" edge="1" parent="1" source="3qdfxk0Ov2vLYJv6HYns-18">
          <mxGeometry width="50" height="50" relative="1" as="geometry">
            <mxPoint x="450" y="-2090" as="sourcePoint" />
            <mxPoint x="710" y="-2070" as="targetPoint" />
          </mxGeometry>
        </mxCell>
        <mxCell id="3qdfxk0Ov2vLYJv6HYns-49" value="&lt;span style=&quot;color: rgba(0, 0, 0, 0); font-family: monospace; font-size: 0px; text-align: start; text-wrap-mode: nowrap;&quot;&gt;%3CmxGraphModel%3E%3Croot%3E%3CmxCell%20id%3D%220%22%2F%3E%3CmxCell%20id%3D%221%22%20parent%3D%220%22%2F%3E%3CmxCell%20id%3D%222%22%20value%3D%22Add%20personal%20information%26amp%3Bnbsp%3B%22%20style%3D%22ellipse%3BwhiteSpace%3Dwrap%3Bhtml%3D1%3BfillColor%3Dnone%3B%22%20vertex%3D%221%22%20parent%3D%221%22%3E%3CmxGeometry%20x%3D%221360%22%20y%3D%22-1080%22%20width%3D%22120%22%20height%3D%2270%22%20as%3D%22geometry%22%2F%3E%3C%2FmxCell%3E%3C%2Froot%3E%3C%2FmxGraphModel%3E&lt;/span&gt;" style="whiteSpace=wrap;html=1;aspect=fixed;fillColor=none;" vertex="1" parent="1">
          <mxGeometry x="920" y="-2210" width="542" height="542" as="geometry" />
        </mxCell>
        <mxCell id="3qdfxk0Ov2vLYJv6HYns-50" value="Actor" style="shape=umlActor;verticalLabelPosition=bottom;verticalAlign=top;html=1;outlineConnect=0;" vertex="1" parent="1">
          <mxGeometry x="850" y="-2108" width="30" height="60" as="geometry" />
        </mxCell>
        <mxCell id="3qdfxk0Ov2vLYJv6HYns-52" value="client" style="text;html=1;align=center;verticalAlign=middle;resizable=0;points=[];autosize=1;strokeColor=none;fillColor=none;" vertex="1" parent="1">
          <mxGeometry x="840" y="-2038" width="50" height="30" as="geometry" />
        </mxCell>
        <mxCell id="3qdfxk0Ov2vLYJv6HYns-53" value="Actor" style="shape=umlActor;verticalLabelPosition=bottom;verticalAlign=top;html=1;outlineConnect=0;" vertex="1" parent="1">
          <mxGeometry x="1490" y="-2098" width="30" height="60" as="geometry" />
        </mxCell>
        <mxCell id="3qdfxk0Ov2vLYJv6HYns-54" value="&lt;span style=&quot;color: rgb(0, 0, 0); font-family: Helvetica; font-size: 12px; font-style: normal; font-variant-ligatures: normal; font-variant-caps: normal; font-weight: 400; letter-spacing: normal; orphans: 2; text-align: center; text-indent: 0px; text-transform: none; widows: 2; word-spacing: 0px; -webkit-text-stroke-width: 0px; white-space: nowrap; background-color: rgb(251, 251, 251); text-decoration-thickness: initial; text-decoration-style: initial; text-decoration-color: initial; display: inline !important; float: none;&quot;&gt;psychologist&lt;/span&gt;" style="text;whiteSpace=wrap;html=1;" vertex="1" parent="1">
          <mxGeometry x="1470" y="-2018" width="80" height="40" as="geometry" />
        </mxCell>
        <mxCell id="3qdfxk0Ov2vLYJv6HYns-55" value="Genral app" style="text;html=1;align=center;verticalAlign=middle;resizable=0;points=[];autosize=1;strokeColor=none;fillColor=none;" vertex="1" parent="1">
          <mxGeometry x="920" y="-2238" width="80" height="30" as="geometry" />
        </mxCell>
        <mxCell id="3qdfxk0Ov2vLYJv6HYns-56" value="Add / modify&amp;nbsp;personal infromation" style="ellipse;whiteSpace=wrap;html=1;fillColor=none;" vertex="1" parent="1">
          <mxGeometry x="1000" y="-2193" width="110" height="53" as="geometry" />
        </mxCell>
        <mxCell id="3qdfxk0Ov2vLYJv6HYns-57" value="Add / modify psychological history" style="ellipse;whiteSpace=wrap;html=1;fillColor=none;" vertex="1" parent="1">
          <mxGeometry x="1000" y="-2120" width="110" height="60" as="geometry" />
        </mxCell>
        <mxCell id="3qdfxk0Ov2vLYJv6HYns-59" value="See all&lt;div&gt;&amp;nbsp;psychologists&#39; list&amp;nbsp;&lt;/div&gt;" style="ellipse;whiteSpace=wrap;html=1;fillColor=none;" vertex="1" parent="1">
          <mxGeometry x="1000" y="-2048" width="110" height="58" as="geometry" />
        </mxCell>
        <mxCell id="3qdfxk0Ov2vLYJv6HYns-60" value="Read other&#39;s comments for psycholigists" style="ellipse;whiteSpace=wrap;html=1;fillColor=none;" vertex="1" parent="1">
          <mxGeometry x="1030" y="-1980" width="110" height="60" as="geometry" />
        </mxCell>
        <mxCell id="3qdfxk0Ov2vLYJv6HYns-61" value="Add public comments for psychologist" style="ellipse;whiteSpace=wrap;html=1;fillColor=none;" vertex="1" parent="1">
          <mxGeometry x="352" y="-1760" width="120" height="54" as="geometry" />
        </mxCell>
        <mxCell id="3qdfxk0Ov2vLYJv6HYns-62" value="" style="endArrow=none;html=1;rounded=0;entryX=0;entryY=0.5;entryDx=0;entryDy=0;" edge="1" parent="1" target="3qdfxk0Ov2vLYJv6HYns-75">
          <mxGeometry width="50" height="50" relative="1" as="geometry">
            <mxPoint x="90" y="-2050" as="sourcePoint" />
            <mxPoint x="120" y="-1650" as="targetPoint" />
          </mxGeometry>
        </mxCell>
        <mxCell id="3qdfxk0Ov2vLYJv6HYns-63" value="Add personal information&amp;nbsp;" style="ellipse;whiteSpace=wrap;html=1;fillColor=none;" vertex="1" parent="1">
          <mxGeometry x="1270" y="-2168" width="120" height="70" as="geometry" />
        </mxCell>
        <mxCell id="3qdfxk0Ov2vLYJv6HYns-64" value="See own patients lists" style="ellipse;whiteSpace=wrap;html=1;fillColor=none;" vertex="1" parent="1">
          <mxGeometry x="1270" y="-2088" width="120" height="70" as="geometry" />
        </mxCell>
        <mxCell id="3qdfxk0Ov2vLYJv6HYns-65" value="get payment notify" style="ellipse;whiteSpace=wrap;html=1;fillColor=none;" vertex="1" parent="1">
          <mxGeometry x="1270" y="-1998" width="120" height="70" as="geometry" />
        </mxCell>
        <mxCell id="3qdfxk0Ov2vLYJv6HYns-66" value="notify user&#39;s commends" style="ellipse;whiteSpace=wrap;html=1;fillColor=none;" vertex="1" parent="1">
          <mxGeometry x="1270" y="-1888" width="120" height="70" as="geometry" />
        </mxCell>
        <mxCell id="3qdfxk0Ov2vLYJv6HYns-67" value="" style="endArrow=none;html=1;rounded=0;entryX=0;entryY=0.5;entryDx=0;entryDy=0;" edge="1" parent="1" target="3qdfxk0Ov2vLYJv6HYns-56">
          <mxGeometry width="50" height="50" relative="1" as="geometry">
            <mxPoint x="890" y="-2058" as="sourcePoint" />
            <mxPoint x="1200" y="-1998" as="targetPoint" />
          </mxGeometry>
        </mxCell>
        <mxCell id="3qdfxk0Ov2vLYJv6HYns-68" value="" style="endArrow=none;html=1;rounded=0;entryX=0;entryY=0.5;entryDx=0;entryDy=0;" edge="1" parent="1" target="3qdfxk0Ov2vLYJv6HYns-57">
          <mxGeometry width="50" height="50" relative="1" as="geometry">
            <mxPoint x="890" y="-2058" as="sourcePoint" />
            <mxPoint x="1000" y="-2133" as="targetPoint" />
          </mxGeometry>
        </mxCell>
        <mxCell id="3qdfxk0Ov2vLYJv6HYns-69" value="" style="endArrow=none;html=1;rounded=0;entryX=0;entryY=0.5;entryDx=0;entryDy=0;" edge="1" parent="1" target="3qdfxk0Ov2vLYJv6HYns-59">
          <mxGeometry width="50" height="50" relative="1" as="geometry">
            <mxPoint x="890" y="-2058" as="sourcePoint" />
            <mxPoint x="1000" y="-2043" as="targetPoint" />
          </mxGeometry>
        </mxCell>
        <mxCell id="3qdfxk0Ov2vLYJv6HYns-70" value="" style="endArrow=none;html=1;rounded=0;entryX=0;entryY=0.5;entryDx=0;entryDy=0;" edge="1" parent="1" target="3qdfxk0Ov2vLYJv6HYns-60">
          <mxGeometry width="50" height="50" relative="1" as="geometry">
            <mxPoint x="890" y="-2058" as="sourcePoint" />
            <mxPoint x="990" y="-1940.5" as="targetPoint" />
          </mxGeometry>
        </mxCell>
        <mxCell id="3qdfxk0Ov2vLYJv6HYns-71" value="" style="endArrow=none;html=1;rounded=0;exitX=1;exitY=0.5;exitDx=0;exitDy=0;" edge="1" parent="1" source="3qdfxk0Ov2vLYJv6HYns-63">
          <mxGeometry width="50" height="50" relative="1" as="geometry">
            <mxPoint x="1150" y="-1898" as="sourcePoint" />
            <mxPoint x="1470" y="-2048" as="targetPoint" />
          </mxGeometry>
        </mxCell>
        <mxCell id="3qdfxk0Ov2vLYJv6HYns-72" value="" style="endArrow=none;html=1;rounded=0;exitX=1;exitY=0.5;exitDx=0;exitDy=0;" edge="1" parent="1" source="3qdfxk0Ov2vLYJv6HYns-64">
          <mxGeometry width="50" height="50" relative="1" as="geometry">
            <mxPoint x="1400" y="-2123" as="sourcePoint" />
            <mxPoint x="1470" y="-2048" as="targetPoint" />
          </mxGeometry>
        </mxCell>
        <mxCell id="3qdfxk0Ov2vLYJv6HYns-73" value="" style="endArrow=none;html=1;rounded=0;exitX=1;exitY=0.5;exitDx=0;exitDy=0;" edge="1" parent="1" source="3qdfxk0Ov2vLYJv6HYns-65">
          <mxGeometry width="50" height="50" relative="1" as="geometry">
            <mxPoint x="1400" y="-2043" as="sourcePoint" />
            <mxPoint x="1470" y="-2048" as="targetPoint" />
          </mxGeometry>
        </mxCell>
        <mxCell id="3qdfxk0Ov2vLYJv6HYns-74" value="" style="endArrow=none;html=1;rounded=0;exitX=1;exitY=0.5;exitDx=0;exitDy=0;" edge="1" parent="1" source="3qdfxk0Ov2vLYJv6HYns-66">
          <mxGeometry width="50" height="50" relative="1" as="geometry">
            <mxPoint x="1410" y="-1953" as="sourcePoint" />
            <mxPoint x="1470" y="-2048" as="targetPoint" />
          </mxGeometry>
        </mxCell>
        <mxCell id="3qdfxk0Ov2vLYJv6HYns-75" value="rate psychologist" style="ellipse;whiteSpace=wrap;html=1;fillColor=none;" vertex="1" parent="1">
          <mxGeometry x="180" y="-1752" width="90" height="42" as="geometry" />
        </mxCell>
        <mxCell id="3qdfxk0Ov2vLYJv6HYns-77" value="extend" style="text;html=1;align=center;verticalAlign=middle;resizable=0;points=[];autosize=1;strokeColor=none;fillColor=none;" vertex="1" parent="1">
          <mxGeometry x="280" y="-1752" width="60" height="30" as="geometry" />
        </mxCell>
        <mxCell id="3qdfxk0Ov2vLYJv6HYns-79" value="" style="endArrow=classic;html=1;rounded=0;exitX=0;exitY=0.5;exitDx=0;exitDy=0;entryX=1;entryY=0.5;entryDx=0;entryDy=0;" edge="1" parent="1" source="3qdfxk0Ov2vLYJv6HYns-61" target="3qdfxk0Ov2vLYJv6HYns-75">
          <mxGeometry width="50" height="50" relative="1" as="geometry">
            <mxPoint x="430" y="-1870" as="sourcePoint" />
            <mxPoint x="480" y="-1920" as="targetPoint" />
          </mxGeometry>
        </mxCell>
        <mxCell id="3qdfxk0Ov2vLYJv6HYns-81" value="" style="endArrow=none;html=1;rounded=0;entryX=1;entryY=0.5;entryDx=0;entryDy=0;" edge="1" parent="1" target="3qdfxk0Ov2vLYJv6HYns-25">
          <mxGeometry width="50" height="50" relative="1" as="geometry">
            <mxPoint x="710" y="-2070" as="sourcePoint" />
            <mxPoint x="480" y="-1920" as="targetPoint" />
          </mxGeometry>
        </mxCell>
        <object label="Actor" id="3qdfxk0Ov2vLYJv6HYns-82">
          <mxCell style="shape=umlActor;verticalLabelPosition=bottom;verticalAlign=top;html=1;outlineConnect=0;" vertex="1" parent="1">
            <mxGeometry x="1490" y="-2270" width="30" height="60" as="geometry" />
          </mxCell>
        </object>
        <mxCell id="3qdfxk0Ov2vLYJv6HYns-83" value="psychology orginization" style="text;html=1;align=center;verticalAlign=middle;resizable=0;points=[];autosize=1;strokeColor=none;fillColor=none;" vertex="1" parent="1">
          <mxGeometry x="1440" y="-2193" width="150" height="30" as="geometry" />
        </mxCell>
        <mxCell id="3qdfxk0Ov2vLYJv6HYns-84" value="" style="endArrow=none;html=1;rounded=0;" edge="1" parent="1">
          <mxGeometry width="50" height="50" relative="1" as="geometry">
            <mxPoint x="1390" y="-2138" as="sourcePoint" />
            <mxPoint x="1460" y="-2208" as="targetPoint" />
          </mxGeometry>
        </mxCell>
        <mxCell id="3qdfxk0Ov2vLYJv6HYns-88" value="Actor" style="shape=umlActor;verticalLabelPosition=bottom;verticalAlign=top;html=1;outlineConnect=0;" vertex="1" parent="1">
          <mxGeometry x="1495" y="-1888" width="30" height="60" as="geometry" />
        </mxCell>
        <mxCell id="3qdfxk0Ov2vLYJv6HYns-89" value="paypal" style="text;html=1;align=center;verticalAlign=middle;resizable=0;points=[];autosize=1;strokeColor=none;fillColor=none;" vertex="1" parent="1">
          <mxGeometry x="1480" y="-1818" width="60" height="30" as="geometry" />
        </mxCell>
        <mxCell id="3qdfxk0Ov2vLYJv6HYns-90" value="" style="endArrow=none;html=1;rounded=0;entryX=0.064;entryY=-0.151;entryDx=0;entryDy=0;entryPerimeter=0;exitX=1;exitY=0.5;exitDx=0;exitDy=0;" edge="1" parent="1" source="3qdfxk0Ov2vLYJv6HYns-65" target="3qdfxk0Ov2vLYJv6HYns-89">
          <mxGeometry width="50" height="50" relative="1" as="geometry">
            <mxPoint x="1180" y="-1848" as="sourcePoint" />
            <mxPoint x="1230" y="-1898" as="targetPoint" />
          </mxGeometry>
        </mxCell>
        <mxCell id="3qdfxk0Ov2vLYJv6HYns-92" value="pay for session" style="ellipse;whiteSpace=wrap;html=1;fillColor=none;" vertex="1" parent="1">
          <mxGeometry x="309" y="-2222" width="90" height="50" as="geometry" />
        </mxCell>
        <mxCell id="3qdfxk0Ov2vLYJv6HYns-93" value="" style="endArrow=classic;html=1;rounded=0;entryX=0.001;entryY=0.681;entryDx=0;entryDy=0;entryPerimeter=0;" edge="1" parent="1" target="3qdfxk0Ov2vLYJv6HYns-92">
          <mxGeometry relative="1" as="geometry">
            <mxPoint x="254" y="-2155.48" as="sourcePoint" />
            <mxPoint x="354" y="-2155.48" as="targetPoint" />
          </mxGeometry>
        </mxCell>
        <mxCell id="3qdfxk0Ov2vLYJv6HYns-97" value="include" style="edgeLabel;html=1;align=center;verticalAlign=middle;resizable=0;points=[];" vertex="1" connectable="0" parent="3qdfxk0Ov2vLYJv6HYns-93">
          <mxGeometry x="0.0082" y="-1" relative="1" as="geometry">
            <mxPoint as="offset" />
          </mxGeometry>
        </mxCell>
        <mxCell id="3qdfxk0Ov2vLYJv6HYns-98" value="Choose / Change psychologist" style="ellipse;whiteSpace=wrap;html=1;fillColor=none;" vertex="1" parent="1">
          <mxGeometry x="1080" y="-1913" width="100" height="63" as="geometry" />
        </mxCell>
        <mxCell id="3qdfxk0Ov2vLYJv6HYns-99" value="" style="endArrow=none;html=1;rounded=0;entryX=0;entryY=0.5;entryDx=0;entryDy=0;" edge="1" parent="1" target="3qdfxk0Ov2vLYJv6HYns-98">
          <mxGeometry width="50" height="50" relative="1" as="geometry">
            <mxPoint x="890" y="-2058" as="sourcePoint" />
            <mxPoint x="1140" y="-1998" as="targetPoint" />
          </mxGeometry>
        </mxCell>
        <mxCell id="3qdfxk0Ov2vLYJv6HYns-100" value="get session reminder before session&lt;div&gt;&amp;nbsp;&lt;/div&gt;" style="ellipse;whiteSpace=wrap;html=1;fillColor=none;" vertex="1" parent="1">
          <mxGeometry x="1150" y="-1823" width="120" height="70" as="geometry" />
        </mxCell>
        <mxCell id="3qdfxk0Ov2vLYJv6HYns-102" value="" style="endArrow=none;html=1;rounded=0;entryX=0;entryY=0.5;entryDx=0;entryDy=0;" edge="1" parent="1" target="3qdfxk0Ov2vLYJv6HYns-100">
          <mxGeometry width="50" height="50" relative="1" as="geometry">
            <mxPoint x="890" y="-2058" as="sourcePoint" />
            <mxPoint x="1200" y="-1958" as="targetPoint" />
          </mxGeometry>
        </mxCell>
        <mxCell id="3qdfxk0Ov2vLYJv6HYns-103" value="" style="endArrow=none;html=1;rounded=0;exitX=1;exitY=0.5;exitDx=0;exitDy=0;" edge="1" parent="1" source="3qdfxk0Ov2vLYJv6HYns-100">
          <mxGeometry width="50" height="50" relative="1" as="geometry">
            <mxPoint x="1150" y="-1908" as="sourcePoint" />
            <mxPoint x="1470" y="-2048" as="targetPoint" />
          </mxGeometry>
        </mxCell>
        <mxCell id="3qdfxk0Ov2vLYJv6HYns-106" value="&lt;div&gt;chat with AI agent&amp;nbsp;&lt;/div&gt;" style="ellipse;whiteSpace=wrap;html=1;fillColor=none;" vertex="1" parent="1">
          <mxGeometry x="1150" y="-1750" width="120" height="70" as="geometry" />
        </mxCell>
        <mxCell id="3qdfxk0Ov2vLYJv6HYns-107" value="" style="endArrow=none;html=1;rounded=0;entryX=0;entryY=0.5;entryDx=0;entryDy=0;" edge="1" parent="1" target="3qdfxk0Ov2vLYJv6HYns-106">
          <mxGeometry width="50" height="50" relative="1" as="geometry">
            <mxPoint x="890" y="-2060" as="sourcePoint" />
            <mxPoint x="1090" y="-1785" as="targetPoint" />
          </mxGeometry>
        </mxCell>
        <mxCell id="3qdfxk0Ov2vLYJv6HYns-108" value="" style="endArrow=none;html=1;rounded=0;exitX=1;exitY=0.5;exitDx=0;exitDy=0;" edge="1" parent="1" source="3qdfxk0Ov2vLYJv6HYns-106">
          <mxGeometry width="50" height="50" relative="1" as="geometry">
            <mxPoint x="1250" y="-1795" as="sourcePoint" />
            <mxPoint x="1470" y="-2050" as="targetPoint" />
          </mxGeometry>
        </mxCell>
      </root>
    </mxGraphModel>
  </diagram>
</mxfile>
